<?xml version="1.0" standalone="no"?>
<!DOCTYPE svg PUBLIC "-//W3C//DTD SVG 20010904//EN"
 "http://www.w3.org/TR/2001/REC-SVG-20010904/DTD/svg10.dtd">
<svg version="1.0" xmlns="http://www.w3.org/2000/svg"
 width="231.000000pt" height="140.000000pt" viewBox="0 0 231.000000 140.000000"
 preserveAspectRatio="xMidYMid meet">

<g transform="translate(0.000000,140.000000) scale(0.100000,-0.100000)"
fill="#000000" stroke="none">
<path d="M1555 1389 c-85 -11 -187 -74 -369 -227 -160 -136 -422 -389 -436
-422 -15 -37 -4 -71 34 -95 34 -22 80 -7 127 41 19 20 82 81 141 136 l108 100
41 -35 c115 -99 295 -63 444 87 93 94 127 158 133 253 4 56 1 78 -12 98 -33
50 -118 76 -211 64z"/>
<path d="M649 1370 c-170 -28 -329 -222 -329 -401 0 -55 23 -129 54 -175 47
-68 731 -785 755 -791 35 -9 75 17 79 50 3 22 -17 49 -123 162 -116 123 -136
155 -101 155 7 0 90 -81 185 -180 145 -152 177 -180 201 -180 33 0 70 33 70
63 0 19 -41 64 -258 289 -94 97 -113 128 -79 128 7 0 82 -75 167 -166 220
-235 251 -264 292 -264 41 0 58 15 58 50 0 35 -17 57 -228 282 -101 108 -184
200 -183 205 1 30 44 -6 176 -148 83 -90 164 -171 180 -181 53 -32 105 -19
105 26 -1 47 -45 105 -230 301 -174 184 -242 245 -270 245 -5 0 -67 -51 -137
-113 -180 -158 -244 -179 -312 -101 -36 40 -41 86 -15 139 8 18 72 86 142 150
70 65 158 148 196 184 l69 66 -62 56 c-121 112 -277 169 -402 149z"/>
<path d="M1820 1238 c0 -102 -69 -229 -182 -334 -82 -78 -156 -110 -295 -126
-17 -3 3 -29 122 -158 79 -85 148 -156 154 -158 15 -5 130 106 221 215 169
203 183 311 64 493 -23 36 -52 74 -63 84 -21 19 -21 19 -21 -16z"/>
<path d="M637 382 c-15 -15 -27 -37 -27 -48 0 -50 74 -71 119 -34 l23 20 -38
44 c-22 24 -42 45 -45 45 -3 1 -17 -12 -32 -27z"/>
<path d="M722 233 c-34 -32 -62 -66 -62 -76 0 -25 45 -67 70 -67 19 0 131 94
130 109 -1 3 -18 25 -39 49 l-38 44 -61 -59z"/>
<path d="M867 140 c-31 -37 -34 -70 -9 -93 26 -24 66 -21 98 7 l28 23 -45 48
-45 47 -27 -32z"/>
</g>
</svg>
